<svg width="546" height="343" viewBox="0 0 546 343" fill="none" xmlns="http://www.w3.org/2000/svg">
<rect x="145.985" y="60.4237" width="401.77" height="239.797" transform="rotate(6.32147 145.985 60.4237)" fill="#FBECEE"/>
<rect x="24.043" y="85.4988" width="276.493" height="184.329" transform="rotate(-13.718 24.043 85.4988)" fill="#B2D1FD"/>
<path fill-rule="evenodd" clip-rule="evenodd" d="M18.0322 105.979L0 88.8956L20.563 67.6999L79.0886 61.6891L251.818 19.9303L289.148 0L316.354 19.9303L309.395 44.606L345.775 180.006L368.869 195.191L355.899 216.386L326.161 212.274L86.6811 276.494L79.0886 293.893L54.413 298.639L41.1261 284.403L54.413 268.269L18.0322 105.979ZM45.2387 88.8956L35.1153 105.979L68.3326 235.051L79.0886 249.604L319.518 191.078L326.161 173.046L292.628 39.5443L278.076 31.3191L45.2387 88.8956Z" fill="url(#paint0_radial_172_240)"/>
<path d="M362.608 187.42C362.608 183.734 363.102 180.442 364.089 177.546C365.142 174.65 366.492 172.214 368.137 170.239C369.849 168.264 371.856 166.783 374.16 165.796C376.464 164.743 378.867 164.216 381.368 164.216C384.265 164.216 386.964 164.809 389.465 165.993C391.966 167.178 394.007 168.989 395.587 171.424V165.697H410.793V209.142H395.587V203.416C394.007 205.851 391.966 207.661 389.465 208.846C386.964 210.031 384.265 210.623 381.368 210.623C378.867 210.623 376.464 210.13 374.16 209.142C371.856 208.089 369.849 206.575 368.137 204.6C366.492 202.626 365.142 200.19 364.089 197.294C363.102 194.397 362.608 191.106 362.608 187.42ZM386.799 176.559C383.968 176.559 381.763 177.612 380.183 179.718C378.604 181.759 377.814 184.326 377.814 187.42C377.814 190.514 378.604 193.114 380.183 195.22C381.763 197.261 383.968 198.281 386.799 198.281C389.432 198.281 391.571 197.327 393.217 195.418C394.928 193.509 395.784 190.843 395.784 187.42C395.784 183.997 394.961 181.331 393.316 179.422C391.67 177.513 389.498 176.559 386.799 176.559Z" fill="#E82F48"/>
<path d="M312.034 209.142V165.697H327.239V171.424C328.622 169.12 330.399 167.343 332.571 166.092C334.744 164.842 337.212 164.216 339.977 164.216C345.045 164.216 349.061 165.961 352.023 169.449C354.985 172.938 356.466 177.743 356.466 183.865V209.142H341.26V185.346C341.26 182.384 340.701 180.179 339.582 178.731C338.463 177.283 336.85 176.559 334.744 176.559C332.44 176.559 330.596 177.283 329.214 178.731C327.898 180.113 327.239 182.318 327.239 185.346V209.142H312.034Z" fill="#E82F48"/>
<path d="M282.832 210.623C279.409 210.623 276.25 210.064 273.353 208.945C270.457 207.76 267.955 206.147 265.849 204.107C263.808 202.066 262.196 199.631 261.011 196.8C259.892 193.904 259.332 190.777 259.332 187.42C259.332 184.063 259.892 180.969 261.011 178.138C262.196 175.242 263.808 172.774 265.849 170.733C267.955 168.692 270.424 167.113 273.254 165.993C276.151 164.809 279.31 164.216 282.733 164.216C286.288 164.216 289.481 164.776 292.311 165.895C295.207 166.948 297.61 168.462 299.519 170.437C301.494 172.346 303.008 174.65 304.061 177.348C305.114 180.047 305.641 182.977 305.641 186.136C305.641 186.992 305.608 187.815 305.542 188.605C305.476 189.329 305.41 190.119 305.345 190.974H274.341C274.801 194.134 275.756 196.306 277.204 197.491C278.718 198.676 280.594 199.269 282.832 199.269C285.004 199.269 286.65 198.841 287.769 197.985C288.954 197.129 289.711 196.01 290.04 194.628H305.048C304.522 197.261 303.567 199.598 302.185 201.638C300.803 203.613 299.124 205.259 297.149 206.575C295.24 207.892 293.035 208.879 290.534 209.537C288.098 210.261 285.531 210.623 282.832 210.623ZM282.536 175.571C280.298 175.571 278.422 176.131 276.908 177.25C275.46 178.303 274.538 180.047 274.143 182.483H290.83C290.567 180.179 289.678 178.468 288.164 177.348C286.716 176.164 284.84 175.571 282.536 175.571Z" fill="#E82F48"/>
<path d="M208.955 209.142V142H224.161V171.424C225.544 169.12 227.321 167.343 229.493 166.092C231.665 164.842 234.134 164.216 236.899 164.216C241.967 164.216 245.983 165.961 248.945 169.449C251.907 172.938 253.388 177.743 253.388 183.865V209.142H238.182V185.346C238.182 182.384 237.623 180.179 236.504 178.731C235.385 177.283 233.772 176.559 231.665 176.559C229.361 176.559 227.518 177.283 226.136 178.731C224.819 180.113 224.161 182.318 224.161 185.346V209.142H208.955Z" fill="#E82F48"/>
<path d="M164.592 177.546V165.697H173.775V148.912H188.981V165.697H201.521V177.546H188.981V191.962C188.981 194.068 189.475 195.484 190.462 196.208C191.449 196.932 192.898 197.294 194.807 197.294C195.926 197.294 197.078 197.195 198.262 196.998C199.447 196.8 200.533 196.636 201.521 196.504V209.636C200.073 209.965 198.46 210.196 196.683 210.327C194.971 210.525 193.325 210.624 191.746 210.624C185.821 210.624 181.345 209.274 178.317 206.575C175.289 203.876 173.775 199.367 173.775 193.048V177.546H164.592Z" fill="#E82F48"/>
<path fill-rule="evenodd" clip-rule="evenodd" d="M113.481 177.546C112.494 180.442 112 183.734 112 187.42C112 191.106 112.494 194.398 113.481 197.294C114.534 200.19 115.884 202.626 117.529 204.601C119.241 206.575 121.249 208.089 123.552 209.143C125.856 210.13 128.259 210.624 130.76 210.624C133.657 210.624 136.356 210.031 138.857 208.846C141.358 207.661 143.399 205.851 144.979 203.416V209.143H160.185V165.697H144.979V171.424C143.399 168.989 141.358 167.178 138.857 165.994C136.356 164.809 133.657 164.216 130.76 164.216C128.259 164.216 125.856 164.743 123.552 165.796C121.249 166.784 119.241 168.265 117.529 170.239C115.884 172.214 114.534 174.65 113.481 177.546ZM133.776 175.452C133.409 174.709 132.35 174.709 131.983 175.452L129.021 181.453C128.876 181.748 128.594 181.953 128.268 182L121.646 182.962C120.826 183.081 120.499 184.089 121.092 184.668L125.884 189.339C126.119 189.568 126.227 189.899 126.171 190.224L125.04 196.819C124.9 197.636 125.758 198.259 126.491 197.873L132.414 194.759C132.705 194.606 133.053 194.606 133.345 194.759L139.268 197.873C140.001 198.259 140.859 197.636 140.719 196.819L139.587 190.224C139.532 189.899 139.639 189.568 139.875 189.339L144.667 184.668C145.26 184.089 144.933 183.081 144.113 182.962L137.491 182C137.165 181.953 136.883 181.748 136.738 181.453L133.776 175.452Z" fill="#E82F48"/>
<path d="M495.019 187.555V264.201C495.019 267.618 495.55 270.162 496.613 271.832C497.676 273.426 499.574 274.224 502.308 274.224V276.615C499.954 276.387 497.6 276.274 495.247 276.274C492.058 276.274 489.059 276.387 486.249 276.615C483.516 276.843 480.973 277.261 478.619 277.868V201.222C478.619 197.805 478.088 195.299 477.025 193.705C476.038 192.035 474.139 191.199 471.33 191.199V188.808C473.76 189.036 476.114 189.149 478.391 189.149C481.504 189.149 484.465 189.036 487.274 188.808C490.084 188.504 492.665 188.087 495.019 187.555ZM465.978 216.255C469.318 216.255 472.241 216.824 474.747 217.963C477.328 219.026 479.34 220.848 480.783 223.43L479.416 224.682C478.429 222.86 477.101 221.569 475.43 220.81C473.836 219.975 472.127 219.557 470.305 219.557C466.433 219.557 463.358 221.835 461.08 226.391C458.803 230.87 457.702 237.817 457.778 247.232C457.778 253.686 458.195 258.849 459.03 262.721C459.941 266.517 461.194 269.25 462.789 270.921C464.459 272.591 466.357 273.426 468.483 273.426C471.064 273.426 473.38 272.401 475.43 270.351C477.48 268.301 478.581 265.53 478.733 262.038L479.302 266.024C478.163 270.048 476.303 273.123 473.722 275.249C471.216 277.299 467.914 278.323 463.814 278.323C459.334 278.323 455.31 277.223 451.742 275.021C448.249 272.819 445.516 269.44 443.542 264.885C441.568 260.253 440.581 254.293 440.581 247.004C440.581 240.095 441.681 234.401 443.883 229.921C446.085 225.366 449.084 221.949 452.88 219.671C456.753 217.394 461.118 216.255 465.978 216.255Z" fill="#C4283D"/>
<path d="M426.558 216.255C428.988 216.255 430.962 216.786 432.48 217.849C433.999 218.836 435.1 220.127 435.783 221.721C436.542 223.316 436.922 224.986 436.922 226.732C436.922 229.542 436.087 231.857 434.416 233.679C432.822 235.426 430.696 236.299 428.039 236.299C425.381 236.299 423.293 235.653 421.775 234.363C420.332 232.996 419.611 231.212 419.611 229.01C419.611 226.884 420.066 225.138 420.978 223.771C421.965 222.329 423.179 221.114 424.622 220.127C423.559 219.823 422.496 219.861 421.433 220.241C419.991 220.468 418.624 221.076 417.333 222.063C416.042 222.974 414.942 224.151 414.03 225.593C413.119 226.96 412.398 228.479 411.867 230.149C411.335 231.743 411.069 233.3 411.069 234.818V264.999C411.069 268.643 411.942 271.111 413.689 272.401C415.511 273.692 418.206 274.337 421.775 274.337V276.729C420.029 276.653 417.485 276.577 414.144 276.501C410.804 276.349 407.311 276.273 403.667 276.273C400.63 276.273 397.555 276.349 394.442 276.501C391.329 276.577 388.975 276.653 387.381 276.729V274.337C390.038 274.337 391.898 273.768 392.961 272.629C394.1 271.49 394.67 269.326 394.67 266.137V230.263C394.67 226.846 394.138 224.341 393.075 222.746C392.088 221.076 390.19 220.241 387.381 220.241V217.849C389.81 218.077 392.164 218.191 394.442 218.191C397.631 218.191 400.592 218.077 403.325 217.849C406.134 217.545 408.716 217.128 411.069 216.596V227.188C411.98 225.138 413.195 223.278 414.714 221.607C416.232 219.937 417.979 218.646 419.953 217.735C421.927 216.748 424.128 216.255 426.558 216.255Z" fill="#C4283D"/>
<path d="M344.151 277.526C340.735 277.526 337.888 276.881 335.61 275.59C333.332 274.299 331.662 272.591 330.599 270.465C329.536 268.263 329.004 265.872 329.004 263.29C329.004 260.025 329.726 257.368 331.168 255.318C332.687 253.268 334.623 251.598 336.977 250.307C339.33 249.016 341.798 247.953 344.379 247.118C347.037 246.283 349.542 245.486 351.896 244.727C354.325 243.891 356.262 242.942 357.704 241.879C359.223 240.74 359.982 239.298 359.982 237.552V228.668C359.982 226.694 359.64 224.948 358.957 223.43C358.349 221.835 357.362 220.62 355.996 219.785C354.705 218.95 352.997 218.532 350.871 218.532C349.352 218.532 347.834 218.76 346.315 219.216C344.797 219.595 343.544 220.279 342.557 221.266C344.683 222.025 346.315 223.202 347.454 224.796C348.669 226.315 349.276 228.061 349.276 230.035C349.276 232.616 348.365 234.666 346.543 236.185C344.797 237.703 342.709 238.463 340.279 238.463C337.546 238.463 335.458 237.628 334.015 235.957C332.649 234.211 331.965 232.123 331.965 229.693C331.965 227.492 332.497 225.669 333.56 224.227C334.699 222.784 336.255 221.418 338.229 220.127C340.355 218.912 342.899 217.963 345.86 217.28C348.897 216.596 352.162 216.255 355.654 216.255C359.147 216.255 362.298 216.634 365.107 217.394C367.916 218.077 370.27 219.368 372.168 221.266C373.914 223.012 375.053 225.176 375.584 227.757C376.116 230.263 376.382 233.452 376.382 237.324V268.301C376.382 270.199 376.571 271.528 376.951 272.287C377.331 272.971 377.976 273.312 378.887 273.312C379.57 273.312 380.216 273.123 380.823 272.743C381.507 272.363 382.228 271.908 382.987 271.376L384.126 273.312C382.532 274.679 380.671 275.742 378.545 276.501C376.496 277.185 374.18 277.526 371.598 277.526C368.789 277.526 366.549 277.147 364.879 276.387C363.209 275.552 361.994 274.451 361.235 273.085C360.551 271.718 360.21 270.123 360.21 268.301C358.387 271.186 356.186 273.464 353.604 275.135C351.023 276.729 347.872 277.526 344.151 277.526ZM352.237 270.237C353.756 270.237 355.123 269.896 356.337 269.212C357.628 268.453 358.843 267.238 359.982 265.568V242.221C359.298 243.36 358.349 244.385 357.135 245.296C355.92 246.207 354.629 247.156 353.262 248.143C351.896 249.054 350.567 250.079 349.276 251.218C348.062 252.357 347.075 253.762 346.315 255.432C345.556 257.102 345.176 259.114 345.176 261.468C345.176 264.429 345.822 266.631 347.113 268.073C348.403 269.516 350.112 270.237 352.237 270.237Z" fill="#C4283D"/>
<path d="M267.574 217.849V220.241C265.904 220.241 264.424 220.355 263.133 220.582C261.918 220.734 261.083 221.266 260.627 222.177C260.248 223.088 260.4 224.568 261.083 226.618L271.902 260.443L270.422 262.038L283.747 217.735L286.024 218.76L268.599 276.957C267.385 276.881 266.17 276.843 264.955 276.843C263.74 276.843 262.487 276.881 261.197 276.957L243.203 226.618C242.14 223.581 240.963 221.759 239.672 221.152C238.457 220.544 237.432 220.241 236.597 220.241V217.849C239.027 218.077 241.532 218.267 244.114 218.419C246.771 218.494 249.656 218.532 252.769 218.532C255.123 218.532 257.59 218.457 260.172 218.305C262.829 218.153 265.297 218.001 267.574 217.849ZM327.024 217.849V220.127C325.581 220.506 324.215 221.38 322.924 222.746C321.633 224.113 320.418 226.505 319.279 229.921L304.132 276.957C302.918 276.881 301.665 276.843 300.374 276.843C299.159 276.843 297.945 276.881 296.73 276.957L280.672 233.11L283.747 217.735C285.113 217.811 286.48 217.849 287.846 217.849C289.289 217.773 290.694 217.735 292.06 217.735L307.663 263.746L306.41 262.493L314.041 238.349C315.331 234.173 315.825 230.794 315.521 228.213C315.217 225.631 314.306 223.695 312.788 222.405C311.269 221.114 309.219 220.355 306.638 220.127V217.849C307.853 217.925 309.143 218.001 310.51 218.077C311.953 218.077 313.357 218.115 314.724 218.191C316.167 218.191 317.381 218.191 318.368 218.191C319.887 218.191 321.443 218.153 323.038 218.077C324.708 218.001 326.037 217.925 327.024 217.849Z" fill="#C4283D"/>
<path d="M198.01 277.526C194.594 277.526 191.747 276.881 189.469 275.59C187.191 274.299 185.521 272.591 184.458 270.465C183.395 268.263 182.863 265.872 182.863 263.29C182.863 260.025 183.585 257.368 185.027 255.318C186.546 253.268 188.482 251.598 190.836 250.307C193.189 249.016 195.657 247.953 198.238 247.118C200.896 246.283 203.401 245.486 205.755 244.727C208.184 243.891 210.121 242.942 211.563 241.879C213.082 240.74 213.841 239.298 213.841 237.552V228.668C213.841 226.694 213.499 224.948 212.816 223.43C212.208 221.835 211.221 220.62 209.855 219.785C208.564 218.95 206.856 218.532 204.73 218.532C203.211 218.532 201.693 218.76 200.174 219.216C198.656 219.595 197.403 220.279 196.416 221.266C198.542 222.025 200.174 223.202 201.313 224.796C202.528 226.315 203.135 228.061 203.135 230.035C203.135 232.616 202.224 234.666 200.402 236.185C198.656 237.703 196.568 238.463 194.138 238.463C191.405 238.463 189.317 237.628 187.874 235.957C186.508 234.211 185.824 232.123 185.824 229.693C185.824 227.492 186.356 225.669 187.419 224.227C188.558 222.784 190.114 221.418 192.088 220.127C194.214 218.912 196.758 217.963 199.719 217.28C202.756 216.596 206.021 216.255 209.513 216.255C213.006 216.255 216.157 216.634 218.966 217.394C221.775 218.077 224.129 219.368 226.027 221.266C227.773 223.012 228.912 225.176 229.443 227.757C229.975 230.263 230.241 233.452 230.241 237.324V268.301C230.241 270.199 230.43 271.528 230.81 272.287C231.19 272.971 231.835 273.312 232.746 273.312C233.43 273.312 234.075 273.123 234.682 272.743C235.366 272.363 236.087 271.908 236.846 271.376L237.985 273.312C236.391 274.679 234.53 275.742 232.405 276.501C230.355 277.185 228.039 277.526 225.457 277.526C222.648 277.526 220.408 277.147 218.738 276.387C217.068 275.552 215.853 274.451 215.094 273.085C214.41 271.718 214.069 270.123 214.069 268.301C212.246 271.186 210.045 273.464 207.463 275.135C204.882 276.729 201.731 277.526 198.01 277.526ZM206.096 270.237C207.615 270.237 208.982 269.896 210.196 269.212C211.487 268.453 212.702 267.238 213.841 265.568V242.221C213.158 243.36 212.208 244.385 210.994 245.296C209.779 246.207 208.488 247.156 207.121 248.143C205.755 249.054 204.426 250.079 203.135 251.218C201.921 252.357 200.934 253.762 200.174 255.432C199.415 257.102 199.035 259.114 199.035 261.468C199.035 264.429 199.681 266.631 200.972 268.073C202.262 269.516 203.971 270.237 206.096 270.237Z" fill="#C4283D"/>
<defs>
<radialGradient id="paint0_radial_172_240" cx="0" cy="0" r="1" gradientUnits="userSpaceOnUse" gradientTransform="translate(184.435 149.319) rotate(90) scale(287.25 354.802)">
<stop offset="0.345" stop-color="#F4BF4F"/>
<stop offset="1" stop-color="#EC3750"/>
</radialGradient>
</defs>
</svg>
